<svg width="258" height="315" viewBox="0 0 258 315" fill="none" xmlns="http://www.w3.org/2000/svg">
<path d="M202.562 0.355469L257.988 32.3555L55.6153 149.195L0.189694 117.195L202.562 0.355469Z" fill="url(#paint0_linear_1119_4292)"/>
<path d="M0.171875 117.186L55.6016 149.188V314.459L0.171875 282.456V117.186Z" fill="#F72422"/>
<path d="M55.6016 149.186L257.983 32.3405V197.619L55.6016 314.464V149.186Z" fill="url(#paint1_linear_1119_4292)"/>
<path d="M88.7795 105.907L75.3088 98.1301L78.0997 96.5188L84.0722 99.967L84.2583 99.8596L83.1791 93.5862L86.5468 91.6418L87.5515 98.0227L100.073 99.387L96.7243 101.321L87.4213 100.268L87.719 102.073L91.5704 104.296L88.7795 105.907ZM109.731 94.0477C106.679 95.8094 102.679 95.6912 99.5532 93.8865C96.4274 92.0818 96.2413 89.783 99.2927 88.0213C102.344 86.2596 106.344 86.3562 109.47 88.1609C112.596 89.9656 112.782 92.2859 109.731 94.0477ZM107.61 92.8016C109.024 91.9852 108.428 90.8035 106.661 89.783C104.874 88.7518 102.828 88.408 101.414 89.2244C99.9811 90.0516 100.558 91.2439 102.344 92.2752C104.112 93.2957 106.177 93.6287 107.61 92.8016ZM112.755 85.3194L118.597 88.6925L115.843 90.2823L105.74 84.4493L108.363 82.9346L110.131 83.9552L110.243 83.8907C109.536 82.9454 109.889 81.9034 111.378 81.044C113.48 79.8302 116.308 79.8516 118.653 81.2266L125.09 84.9434L122.355 86.5225L116.401 83.085C115.155 82.3653 113.722 82.3331 112.587 82.9884C111.433 83.6544 111.415 84.546 112.755 85.3194ZM117.444 73.8034L120.905 71.8053L133.78 74.9205L133.929 74.8346L128.533 67.401L131.994 65.403L145.465 73.1803L142.748 74.7487L133.929 69.6569L133.817 69.7213L139.064 76.8112L137.204 77.8854L124.886 74.8346L124.775 74.8991L133.631 80.0123L130.915 81.5807L117.444 73.8034ZM152.042 69.6191C148.991 71.3808 144.991 71.2626 141.865 69.4579C138.739 67.6532 138.553 65.3544 141.604 63.5927C144.656 61.831 148.656 61.9277 151.782 63.7323C154.908 65.537 155.094 67.8573 152.042 69.6191ZM149.921 68.373C151.335 67.5566 150.74 66.3749 148.972 65.3544C147.186 64.3232 145.139 63.9794 143.725 64.7958C142.293 65.623 142.869 66.8154 144.656 67.8466C146.423 68.8671 148.488 69.2001 149.921 68.373ZM162.043 63.802C159.736 65.134 156.089 65.1125 152.722 63.1682C149.261 61.1701 149.41 59.0861 151.643 57.7971C153.336 56.8195 155.14 56.9377 156.331 57.1955L156.424 57.1418L151.363 54.2199L154.117 52.6301L167.588 60.4074L164.871 61.9758L163.253 61.0412L163.122 61.1164C163.569 61.8254 163.681 62.8566 162.043 63.802ZM160.704 62.0402C162.081 61.2453 161.653 60.0959 159.829 59.0432C158.006 57.9904 156.071 57.7756 154.694 58.5705C153.298 59.3762 153.764 60.5041 155.531 61.5246C157.317 62.5559 159.308 62.8459 160.704 62.0402ZM174.203 56.8247C171.114 58.6079 167.207 58.5434 164.007 56.6958C160.881 54.8911 160.695 52.5708 163.653 50.8628C166.314 49.3266 170.072 49.0903 173.514 51.0776L174.296 51.5288L167.393 55.5141C168.919 56.395 170.779 56.4165 172.193 55.6001C173.124 55.063 173.384 54.4399 173.049 53.9243L175.673 52.4096C177.142 53.7094 176.696 55.3852 174.203 56.8247ZM165.663 54.5151L169.961 52.0337C168.733 51.3247 167.002 51.3139 165.774 52.0229C164.509 52.7534 164.546 53.8169 165.663 54.5151ZM169.263 43.8855L182.734 51.6628L179.98 53.2527L166.51 45.4753L169.263 43.8855Z" fill="white"/>
<g clip-path="url(#clip0_1119_4292)">
<path d="M92.8867 165.939C99.3436 162.212 104.578 157.175 104.578 154.689C104.578 152.204 99.3436 153.212 92.8867 156.939C86.4297 160.667 81.1953 165.704 81.1953 168.189C81.1953 170.675 86.4297 169.667 92.8867 165.939Z" stroke="#F9504D" stroke-width="3" stroke-linecap="round" stroke-linejoin="round"/>
<path d="M81.1953 168.189V189.189C81.1953 190.383 82.4271 190.816 84.6196 190.394C86.8122 189.972 89.7859 188.73 92.8867 186.939C95.9874 185.149 98.9611 182.958 101.154 180.848C103.346 178.739 104.578 176.883 104.578 175.689V154.689" stroke="#F9504D" stroke-width="3" stroke-linecap="round" stroke-linejoin="round"/>
<path d="M81.1953 178.689C81.1953 179.883 82.4271 180.316 84.6196 179.894C86.8122 179.472 89.7859 178.23 92.8867 176.439C95.9874 174.649 98.9611 172.458 101.154 170.348C103.346 168.239 104.578 166.383 104.578 165.189" stroke="#F9504D" stroke-width="3" stroke-linecap="round" stroke-linejoin="round"/>
</g>
<g clip-path="url(#clip1_1119_4292)">
<path d="M229.781 154.338L208.997 166.338C207.562 167.166 206.398 169.181 206.398 170.838V176.838C206.398 178.495 207.562 179.166 208.997 178.338L229.781 166.338C231.216 165.509 232.379 163.495 232.379 161.838V155.838C232.379 154.181 231.216 153.509 229.781 154.338Z" stroke="#FF675E" stroke-width="3" stroke-linecap="round" stroke-linejoin="round"/>
<path d="M229.781 172.34L208.997 184.34C207.562 185.168 206.398 187.183 206.398 188.84V194.84C206.398 196.497 207.562 197.168 208.997 196.34L229.781 184.34C231.216 183.511 232.379 181.497 232.379 179.84V173.84C232.379 172.183 231.216 171.511 229.781 172.34Z" stroke="#FF675E" stroke-width="3" stroke-linecap="round" stroke-linejoin="round"/>
<path d="M211.594 170.84L211.608 170.832" stroke="#FF675E" stroke-width="3" stroke-linecap="round" stroke-linejoin="round"/>
<path d="M211.594 188.84L211.608 188.832" stroke="#FF675E" stroke-width="3" stroke-linecap="round" stroke-linejoin="round"/>
</g>
<defs>
<linearGradient id="paint0_linear_1119_4292" x1="149.904" y1="5.00077" x2="159.303" y2="151.07" gradientUnits="userSpaceOnUse">
<stop stop-color="#FF4A4A"/>
<stop offset="1" stop-color="#EC0C0C"/>
</linearGradient>
<linearGradient id="paint1_linear_1119_4292" x1="-8.39698" y1="202.721" x2="39.2955" y2="326.817" gradientUnits="userSpaceOnUse">
<stop stop-color="#E31313"/>
<stop offset="1" stop-color="#FF4A4A" stop-opacity="0.98"/>
</linearGradient>
<clipPath id="clip0_1119_4292">
<rect width="48" height="48" fill="white" transform="matrix(0.866025 -0.5 0 1 72.1016 159.939)"/>
</clipPath>
<clipPath id="clip1_1119_4292">
<rect width="48" height="48" fill="white" transform="matrix(0.866025 -0.5 0 1 198.602 163.34)"/>
</clipPath>
</defs>
</svg>
