<svg width="259" height="315" viewBox="0 0 259 315" fill="none" xmlns="http://www.w3.org/2000/svg">
<rect width="64" height="233.68" transform="matrix(0.866025 0.5 -0.866025 0.5 202.992 0.705078)" fill="white"/>
<path d="M0.601562 117.535L56.0313 149.538V314.808L0.601562 282.806V117.535Z" fill="url(#paint0_linear_1119_2202)"/>
<rect width="233.69" height="165.279" transform="matrix(0.866025 -0.5 0 1 56.0312 149.535)" fill="url(#paint1_linear_1119_2202)"/>
<g clip-path="url(#clip0_1119_2202)">
<path d="M156.384 175.405C157.179 174.946 157.823 173.83 157.823 172.912C157.823 171.994 157.179 171.622 156.384 172.081C155.59 172.54 154.945 173.656 154.945 174.574C154.945 175.491 155.59 175.863 156.384 175.405Z" stroke="#DFDFDF" stroke-width="3" stroke-linecap="round" stroke-linejoin="round"/>
<path d="M168.19 180.554C171.125 175.486 168.219 168.308 161.714 164.519C155.181 160.78 147.511 161.852 144.59 166.928C141.654 171.996 144.561 179.175 151.066 182.963C157.599 186.702 165.269 185.63 168.19 180.554Z" stroke="#DFDFDF" stroke-width="3" stroke-linecap="round" stroke-linejoin="round"/>
<path d="M161.714 176.815C168.219 165.516 171.125 154.981 168.19 153.303C165.269 151.6 157.599 159.385 151.066 170.667C144.561 181.966 141.654 192.501 144.59 194.179C147.511 195.882 155.181 188.098 161.714 176.815Z" stroke="#DFDFDF" stroke-width="3" stroke-linecap="round" stroke-linejoin="round"/>
</g>
<path d="M98.0871 101.314L84.6163 93.5371L87.4072 91.9258L93.3798 95.374L93.5658 95.2666L92.4867 88.9932L95.8544 87.0488L96.8591 93.4297L109.381 94.794L106.032 96.7276L96.7288 95.6748L97.0265 97.4795L100.878 99.7031L98.0871 101.314ZM119.038 89.4547C115.987 91.2164 111.987 91.0982 108.861 89.2935C105.735 87.4888 105.549 85.19 108.6 83.4283C111.652 81.6666 115.652 81.7633 118.778 83.5679C121.904 85.3726 122.09 87.6929 119.038 89.4547ZM116.917 88.2086C118.331 87.3922 117.736 86.2105 115.968 85.19C114.182 84.1588 112.135 83.815 110.721 84.6314C109.289 85.4586 109.865 86.651 111.652 87.6822C113.419 88.7027 115.484 89.0357 116.917 88.2086ZM122.062 80.7264L127.904 84.0995L125.151 85.6893L115.048 79.8563L117.671 78.3417L119.439 79.3622L119.55 79.2977C118.843 78.3524 119.197 77.3104 120.685 76.451C122.788 75.2372 125.616 75.2587 127.96 76.6337L134.398 80.3504L131.663 81.9296L125.709 78.4921C124.462 77.7723 123.03 77.7401 121.895 78.3954C120.741 79.0614 120.722 79.953 122.062 80.7264ZM140.222 76.9877L126.752 69.2104L132.036 66.1596C135.106 64.3871 138.585 64.3764 141.246 65.9125C143.088 66.976 143.581 68.2382 142.697 69.5004L150.809 70.8754L147.72 72.6586L140.371 71.3803L138.231 72.6156L143.013 75.3764L140.222 76.9877ZM135.961 71.3051L137.934 70.1664C139.59 69.2104 139.701 68.351 138.362 67.5776C137.003 66.7934 135.459 66.8256 133.803 67.7817L131.831 68.9203L135.961 71.3051ZM154.131 68.9577L151.116 70.6979L142.316 60.2243L145.907 58.1511L164.029 63.2429L161.033 64.9724L156.922 63.7585L152.047 66.5729L154.131 68.9577ZM150.577 64.9079L154.038 62.9099L147.191 60.9118L147.098 60.9655L150.577 64.9079ZM164.355 52.5058C162.718 51.9902 160.913 52.1299 159.443 52.9785C157.359 54.1816 157.545 55.9219 160.373 57.5547C163.22 59.1982 166.216 59.3379 168.355 58.1025C170.281 56.9907 170.337 55.7016 168.672 54.6972L165.75 56.3838L163.648 55.1699L169.267 51.9258L170.942 52.8926C174.477 54.9336 174.216 57.5762 170.811 59.542C167.034 61.7226 161.825 61.6797 157.564 59.2197C153.191 56.6953 153.359 53.6338 156.913 51.582C159.945 49.831 164.15 49.5517 167.183 50.873L164.355 52.5058Z" fill="black"/>
<defs>
<linearGradient id="paint0_linear_1119_2202" x1="55.5796" y1="153.134" x2="-0.32044" y2="150.6" gradientUnits="userSpaceOnUse">
<stop stop-color="#D8D8DA"/>
<stop offset="1" stop-color="#E9E9E9"/>
</linearGradient>
<linearGradient id="paint1_linear_1119_2202" x1="101.777" y1="61.0343" x2="138.467" y2="157.371" gradientUnits="userSpaceOnUse">
<stop stop-color="#BABABA"/>
<stop offset="1" stop-color="#CCCCCC"/>
</linearGradient>
<clipPath id="clip0_1119_2202">
<rect width="48" height="48" fill="white" transform="matrix(0.866025 -0.5 0 1 135.602 161.74)"/>
</clipPath>
</defs>
</svg>
