<svg width="756" height="551" viewBox="0 0 756 551" fill="none" xmlns="http://www.w3.org/2000/svg">
<rect width="436" height="436" transform="matrix(0.866025 0.5 -0.866025 0.5 377.594 0)" fill="url(#paint0_linear_965_3863)"/>
<path d="M0 218L377.587 436V484L0 266V218Z" fill="#F72422"/>
<path d="M377.594 436L755.181 218V266L377.594 484V436Z" fill="url(#paint1_linear_965_3863)"/>
<path d="M19.9865 261.53V245.976L22.7774 247.587V254.483L22.9635 254.591L27.8569 250.52L31.2246 252.464L26.2009 256.524L31.2804 268.051L27.9313 266.117L24.1915 257.534L22.7774 258.694V263.142L19.9865 261.53ZM40.733 273.745C37.6816 271.983 35.7838 268.459 35.7838 264.85C35.7838 261.241 37.6816 259.93 40.733 261.692C43.7844 263.454 45.7008 266.966 45.7008 270.576C45.7008 274.185 43.7844 275.506 40.733 273.745ZM40.7516 271.285C42.1656 272.101 42.8913 270.995 42.8913 268.954C42.8913 266.891 42.1656 264.947 40.7516 264.13C39.3189 263.303 38.5747 264.399 38.5747 266.461C38.5747 268.502 39.3189 270.457 40.7516 271.285ZM49.8038 271.999V278.745L47.0501 277.155V265.489L49.6735 267.004V269.045L49.7852 269.11C50.2503 268.025 51.3295 267.81 52.818 268.669C54.9204 269.883 56.3159 272.343 56.2973 275.061V282.494L53.5622 280.915V274.04C53.5622 272.601 52.8738 271.344 51.7388 270.689C50.5852 270.023 49.8038 270.452 49.8038 271.999ZM62.1217 285.857V270.302L67.4058 273.353C70.4758 275.126 72.2248 278.133 72.2248 281.206C72.2248 283.333 71.3782 284.391 69.8432 284.256L72.7085 291.969L69.6199 290.186L67.0523 283.182L64.9126 281.947V287.468L62.1217 285.857ZM64.9126 279.326L66.8849 280.464C68.5408 281.421 69.3408 281.087 69.3408 279.541C69.3408 277.972 68.5408 276.651 66.8849 275.695L64.9126 274.556V279.326ZM76.0301 293.887L73.0159 292.147L77.686 279.288L81.277 281.362L85.9285 299.602L82.9329 297.872L81.9282 293.704L77.0534 290.89L76.0301 293.887ZM77.7604 288.784L81.2212 290.783L79.528 283.854L79.435 283.8L77.7604 288.784ZM89.864 286.319V301.874L87.0731 300.263V284.708L89.864 286.319Z" fill="white"/>
<path d="M397.487 456.521V440.966L400.277 439.354V446.251L400.463 446.144L405.357 436.422L408.725 434.478L403.701 444.339L408.78 450L405.431 451.934L401.691 447.669L400.277 450.462V454.909L397.487 456.521ZM418.233 444.779C415.182 446.541 413.284 445.209 413.284 441.599C413.284 437.99 415.182 434.488 418.233 432.726C421.284 430.964 423.201 432.264 423.201 435.874C423.201 439.483 421.284 443.017 418.233 444.779ZM418.252 442.297C419.666 441.481 420.391 439.537 420.391 437.496C420.391 435.433 419.666 434.327 418.252 435.143C416.819 435.97 416.075 437.925 416.075 439.988C416.075 442.029 416.819 443.125 418.252 442.297ZM427.304 432.559V439.306L424.55 440.895V429.229L427.174 427.715V429.756L427.285 429.691C427.75 428.069 428.829 426.608 430.318 425.749C432.42 424.535 433.816 425.384 433.797 428.123V435.556L431.062 437.136V430.261C431.062 428.821 430.374 428.359 429.239 429.014C428.085 429.681 427.304 431.013 427.304 432.559ZM439.622 432.194V416.639L444.906 413.588C447.976 411.816 449.725 412.804 449.725 415.876C449.725 418.003 448.878 420.039 447.343 421.677L450.209 426.081L447.12 427.865L444.552 423.826L442.413 425.061V430.582L439.622 432.194ZM442.413 422.44L444.385 421.301C446.041 420.345 446.841 419.088 446.841 417.541C446.841 415.973 446.041 415.576 444.385 416.532L442.413 417.67V422.44ZM453.53 424.164L450.516 425.904L455.186 407.653L458.777 405.58L463.428 418.449L460.433 420.178L459.428 417.171L454.553 419.985L453.53 424.164ZM455.26 417.063L458.721 415.065L457.028 410.091L456.935 410.145L455.26 417.063ZM467.364 400.622V416.177L464.573 417.788V402.233L467.364 400.622Z" fill="white"/>
<g clip-path="url(#clip0_965_3863)">
<path d="M398.583 341.942C413.738 350.692 410.707 361.192 402.493 371.01C402.057 371.52 401.329 371.928 400.432 372.165C383.428 376.942 365.241 378.692 350.086 369.942L328.868 357.692C328.064 357.228 327.612 356.599 327.612 355.942C327.612 355.286 328.064 354.656 328.868 354.192C334.93 350.692 338.87 344.217 339.537 338.512C339.631 337.825 340.146 337.179 340.991 336.691C341.836 336.204 342.954 335.906 344.145 335.852C354.087 335.467 365.241 333.192 371.303 329.692C372.107 329.228 373.197 328.967 374.334 328.967C375.471 328.967 376.561 329.228 377.365 329.692L398.583 341.942Z" stroke="#FF675E" stroke-width="5" stroke-linecap="round" stroke-linejoin="round"/>
<path d="M375.201 376.126C373.015 373.371 372.342 370.295 373.272 367.313C374.202 364.33 376.69 361.583 380.403 359.44C384.116 357.298 388.875 355.863 394.042 355.327C399.209 354.792 404.535 355.182 409.307 356.446" stroke="#FF675E" stroke-width="5" stroke-linecap="round" stroke-linejoin="round"/>
<path d="M380.397 359.441C387.093 355.575 387.093 349.307 380.397 345.441C373.7 341.575 362.844 341.575 356.148 345.441C349.452 349.307 349.452 355.575 356.148 359.441C362.844 363.307 373.7 363.307 380.397 359.441Z" stroke="#FF675E" stroke-width="5" stroke-linecap="round" stroke-linejoin="round"/>
</g>
<g clip-path="url(#clip1_965_3863)">
<path d="M156.93 226.691L169.054 226.691C170.248 226.691 171.43 226.556 172.534 226.292C173.637 226.028 174.639 225.641 175.484 225.154C176.328 224.666 176.998 224.087 177.455 223.45C177.912 222.814 178.147 222.131 178.147 221.441C178.147 220.752 177.912 220.069 177.455 219.432C176.998 218.795 176.328 218.217 175.484 217.729C174.639 217.242 173.637 216.855 172.534 216.591C171.43 216.327 170.248 216.191 169.054 216.191" stroke="#FF675E" stroke-width="5" stroke-linecap="round" stroke-linejoin="round"/>
<path d="M156.921 216.191L172.076 216.191C174.488 216.191 176.801 215.638 178.506 214.653C180.212 213.669 181.17 212.333 181.17 210.941C181.17 209.549 180.212 208.213 178.506 207.229C176.801 206.244 174.488 205.691 172.076 205.691L148.555 205.691C145.147 205.692 141.88 206.474 139.47 207.866C137.06 209.257 135.706 211.143 135.703 213.111L135.703 216.191C135.703 217.583 134.745 218.919 133.04 219.903C131.335 220.888 129.022 221.441 126.61 221.441C124.198 221.441 121.886 220.888 120.18 219.903C118.475 218.919 117.517 217.583 117.517 216.191L117.517 206.356C117.524 203.167 119.373 200.071 122.772 197.557C126.17 195.044 130.923 193.257 136.279 192.478L138.553 192.146C140.622 191.851 142.427 191.121 143.615 190.098L147.828 186.441" stroke="#FF675E" stroke-width="5" stroke-linecap="round" stroke-linejoin="round"/>
<path d="M144.805 184.691L181.178 202.191L175.115 205.691" stroke="#FF675E" stroke-width="5" stroke-linecap="round" stroke-linejoin="round"/>
<path d="M90.242 216.191L120.553 237.191L159.957 237.191C162.369 237.191 164.682 236.638 166.387 235.654C168.092 234.669 169.05 233.334 169.05 231.941C169.05 230.549 168.092 229.214 166.387 228.229C164.682 227.245 162.369 226.691 159.957 226.691" stroke="#FF675E" stroke-width="5" stroke-linecap="round" stroke-linejoin="round"/>
<path d="M93.2734 217.941L117.522 203.941" stroke="#FF675E" stroke-width="5" stroke-linecap="round" stroke-linejoin="round"/>
</g>
<g clip-path="url(#clip2_965_3863)">
<path d="M634.553 220.191L619.398 200.941L652.74 209.691C652.073 212.351 649.951 214.801 646.678 216.691C643.404 218.581 639.161 219.806 634.553 220.191Z" stroke="#FF675E" stroke-width="5" stroke-linecap="round" stroke-linejoin="round"/>
<path d="M592.116 244.691L576.96 225.441L610.302 234.191C609.636 236.851 607.514 239.301 604.24 241.191C600.967 243.081 596.723 244.306 592.116 244.691Z" stroke="#FF675E" stroke-width="5" stroke-linecap="round" stroke-linejoin="round"/>
<path d="M622.43 244.691L652.741 227.191" stroke="#FF675E" stroke-width="5" stroke-linecap="round" stroke-linejoin="round"/>
<path d="M583.023 204.441L637.583 235.941" stroke="#FF675E" stroke-width="5" stroke-linecap="round" stroke-linejoin="round"/>
<path d="M567.867 227.191L573.929 223.691C579.991 220.191 586.053 213.191 589.084 207.941C598.178 206.191 610.302 202.691 616.364 199.191L622.426 195.691" stroke="#FF675E" stroke-width="5" stroke-linecap="round" stroke-linejoin="round"/>
</g>
<g clip-path="url(#clip3_965_3863)">
<path d="M410.583 69.9422C425.738 78.6922 422.707 89.1922 414.493 99.0097C414.057 99.5201 413.329 99.928 412.432 100.165C395.428 104.942 377.241 106.692 362.086 97.9422L340.868 85.6922C340.064 85.2281 339.612 84.5986 339.612 83.9422C339.612 83.2858 340.064 82.6563 340.868 82.1922C346.93 78.6922 350.87 72.2172 351.537 66.5122C351.631 65.8247 352.146 65.179 352.991 64.6914C353.836 64.2038 354.954 63.9062 356.145 63.8522C366.087 63.4672 377.241 61.1922 383.303 57.6922C384.107 57.2281 385.197 56.9673 386.334 56.9673C387.471 56.9673 388.561 57.2281 389.365 57.6922L410.583 69.9422Z" stroke="#FF675E" stroke-width="5" stroke-linecap="round" stroke-linejoin="round"/>
<path d="M387.852 72.216L389.671 87.966L373.303 87.966" stroke="#FF675E" stroke-width="5" stroke-linecap="round" stroke-linejoin="round"/>
</g>
<defs>
<linearGradient id="paint0_linear_965_3863" x1="279.24" y1="261.336" x2="-552.955" y2="235.856" gradientUnits="userSpaceOnUse">
<stop stop-color="#FF3D2F"/>
<stop offset="1" stop-color="#EC0C0C"/>
</linearGradient>
<linearGradient id="paint1_linear_965_3863" x1="-221.984" y1="789.689" x2="-167.272" y2="876.208" gradientUnits="userSpaceOnUse">
<stop stop-color="#E31313"/>
<stop offset="1" stop-color="#FF4A4A" stop-opacity="0.98"/>
</linearGradient>
<clipPath id="clip0_965_3863">
<rect width="84" height="84" fill="white" transform="matrix(0.866025 -0.5 0.866025 0.5 298.555 354.191)"/>
</clipPath>
<clipPath id="clip1_965_3863">
<rect width="84" height="84" fill="white" transform="matrix(0.866025 -0.5 0.866025 0.5 72.0547 216.191)"/>
</clipPath>
<clipPath id="clip2_965_3863">
<rect width="84" height="84" fill="white" transform="matrix(0.866025 -0.5 0.866025 0.5 537.555 220.191)"/>
</clipPath>
<clipPath id="clip3_965_3863">
<rect width="84" height="84" fill="white" transform="matrix(0.866025 -0.5 0.866025 0.5 310.555 82.1914)"/>
</clipPath>
</defs>
</svg>
