<svg width="756" height="551" viewBox="0 0 756 551" fill="none" xmlns="http://www.w3.org/2000/svg">
<rect width="436" height="436" transform="matrix(0.866025 0.5 -0.866025 0.5 377.641 0.548828)" fill="white"/>
<path d="M0.046875 218.549L377.634 436.549V484.549L0.046875 266.549V218.549Z" fill="url(#paint0_linear_1119_2889)"/>
<rect width="436" height="48" transform="matrix(0.866025 -0.5 0 1 377.641 436.549)" fill="url(#paint1_linear_1119_2889)"/>
<path d="M20.0334 262.079V246.524L22.8243 248.136V255.032L23.0104 255.14L27.9037 251.068L31.2714 253.013L26.2478 257.073L31.3273 268.6L27.9782 266.666L24.2384 258.083L22.8243 259.243V263.69L20.0334 262.079ZM40.7799 274.293C37.7285 272.532 35.8307 269.008 35.8307 265.399C35.8307 261.789 37.7285 260.479 40.7799 262.241C43.8312 264.002 45.7477 267.515 45.7477 271.124C45.7477 274.734 43.8312 276.055 40.7799 274.293ZM40.7985 271.833C42.2125 272.65 42.9382 271.543 42.9382 269.502C42.9382 267.44 42.2125 265.496 40.7985 264.679C39.3658 263.852 38.6216 264.948 38.6216 267.01C38.6216 269.051 39.3658 271.006 40.7985 271.833ZM49.8507 272.548V279.294L47.097 277.704V266.038L49.7204 267.553V269.594L49.8321 269.658C50.2972 268.573 51.3764 268.359 52.8648 269.218C54.9673 270.432 56.3628 272.892 56.3442 275.61V283.043L53.6091 281.464V274.589C53.6091 273.15 52.9207 271.893 51.7857 271.237C50.6321 270.571 49.8507 271.001 49.8507 272.548ZM62.1686 286.406V270.851L67.4527 273.902C70.5227 275.674 72.2717 278.682 72.2717 281.754C72.2717 283.881 71.4251 284.94 69.8901 284.805L72.7554 292.518L69.6668 290.735L67.0992 283.731L64.9595 282.496V288.017L62.1686 286.406ZM64.9595 279.875L66.9317 281.013C68.5877 281.969 69.3877 281.636 69.3877 280.089C69.3877 278.521 68.5877 277.2 66.9317 276.244L64.9595 275.105V279.875ZM76.077 294.436L73.0628 292.696L77.7329 279.837L81.3239 281.91L85.9754 300.151L82.9798 298.421L81.9751 294.253L77.1003 291.439L76.077 294.436ZM77.8073 289.333L81.268 291.331L79.5749 284.403L79.4819 284.349L77.8073 289.333ZM89.9109 286.868V302.423L87.12 300.812V285.257L89.9109 286.868Z" fill="black"/>
<path d="M397.533 457.071V441.517L400.324 439.905V446.802L400.51 446.694L405.404 436.973L408.771 435.028L403.748 444.89L408.827 450.551L405.478 452.484L401.738 448.22L400.324 451.013V455.46L397.533 457.071ZM418.28 445.33C415.228 447.091 413.331 445.759 413.331 442.15C413.331 438.541 415.228 435.039 418.28 433.277C421.331 431.515 423.248 432.815 423.248 436.424C423.248 440.034 421.331 443.568 418.28 445.33ZM418.298 442.848C419.713 442.032 420.438 440.087 420.438 438.046C420.438 435.984 419.713 434.877 418.298 435.694C416.866 436.521 416.122 438.476 416.122 440.539C416.122 442.58 416.866 443.675 418.298 442.848ZM427.351 433.11V439.856L424.597 441.446V429.78L427.22 428.265V430.306L427.332 430.242C427.797 428.62 428.876 427.159 430.365 426.3C432.467 425.086 433.863 425.934 433.844 428.674V436.107L431.109 437.686V430.811C431.109 429.372 430.421 428.91 429.286 429.565C428.132 430.231 427.351 431.563 427.351 433.11ZM439.669 432.745V417.19L444.953 414.139C448.023 412.367 449.772 413.355 449.772 416.427C449.772 418.554 448.925 420.59 447.39 422.228L450.255 426.632L447.167 428.415L444.599 424.376L442.459 425.612V431.133L439.669 432.745ZM442.459 422.991L444.432 421.852C446.088 420.896 446.888 419.639 446.888 418.092C446.888 416.524 446.088 416.126 444.432 417.082L442.459 418.221V422.991ZM453.577 424.715L450.563 426.455L455.233 408.204L458.824 406.131L463.475 419L460.48 420.729L459.475 417.721L454.6 420.536L453.577 424.715ZM455.307 417.614L458.768 415.616L457.075 410.642L456.982 410.696L455.307 417.614ZM467.411 401.173V416.727L464.62 418.339V402.784L467.411 401.173Z" fill="black"/>
<g clip-path="url(#clip0_1119_2889)">
<path d="M156.969 227.238L169.093 227.238C170.287 227.238 171.47 227.102 172.573 226.839C173.676 226.575 174.678 226.188 175.523 225.701C176.367 225.213 177.037 224.634 177.494 223.997C177.951 223.36 178.186 222.678 178.186 221.988C178.186 221.299 177.951 220.616 177.494 219.979C177.037 219.342 176.367 218.763 175.523 218.276C174.678 217.788 173.676 217.402 172.573 217.138C171.47 216.874 170.287 216.738 169.093 216.738" stroke="#DDDDDD" stroke-width="5" stroke-linecap="round" stroke-linejoin="round"/>
<path d="M156.96 216.738L172.116 216.738C174.527 216.738 176.84 216.185 178.545 215.2C180.251 214.216 181.209 212.88 181.209 211.488C181.209 210.095 180.251 208.76 178.545 207.775C176.84 206.791 174.527 206.238 172.116 206.238L148.594 206.238C145.186 206.239 141.919 207.021 139.509 208.412C137.099 209.804 135.745 211.69 135.742 213.658L135.742 216.738C135.742 218.13 134.784 219.466 133.079 220.45C131.374 221.435 129.061 221.988 126.649 221.988C124.238 221.988 121.925 221.435 120.219 220.45C118.514 219.466 117.556 218.13 117.556 216.738L117.556 206.903C117.563 203.714 119.412 200.618 122.811 198.104C126.209 195.591 130.962 193.803 136.318 193.025L138.592 192.693C140.661 192.397 142.466 191.667 143.654 190.645L147.867 186.988" stroke="#DDDDDD" stroke-width="5" stroke-linecap="round" stroke-linejoin="round"/>
<path d="M144.844 185.238L181.217 202.738L175.154 206.238" stroke="#DDDDDD" stroke-width="5" stroke-linecap="round" stroke-linejoin="round"/>
<path d="M90.2811 216.738L120.592 237.738L159.996 237.738C162.408 237.738 164.721 237.185 166.426 236.201C168.131 235.216 169.089 233.881 169.089 232.488C169.089 231.096 168.131 229.761 166.426 228.776C164.721 227.791 162.408 227.238 159.996 227.238" stroke="#DDDDDD" stroke-width="5" stroke-linecap="round" stroke-linejoin="round"/>
<path d="M93.3125 218.488L117.561 204.488" stroke="#DDDDDD" stroke-width="5" stroke-linecap="round" stroke-linejoin="round"/>
</g>
<g clip-path="url(#clip1_1119_2889)">
<path d="M639.731 202.889C654.887 211.639 651.856 222.139 643.642 231.957C643.205 232.467 642.477 232.875 641.58 233.112C624.576 237.889 606.389 239.639 591.234 230.889L570.016 218.639C569.212 218.175 568.761 217.546 568.761 216.889C568.761 216.233 569.212 215.604 570.016 215.139C576.079 211.639 580.019 205.164 580.686 199.459C580.779 198.772 581.295 198.126 582.139 197.639C582.984 197.151 584.102 196.853 585.293 196.799C595.235 196.414 606.389 194.139 612.452 190.639C613.255 190.175 614.346 189.915 615.483 189.915C616.62 189.915 617.71 190.175 618.514 190.639L639.731 202.889Z" stroke="#DDDDDD" stroke-width="5" stroke-linecap="round" stroke-linejoin="round"/>
<path d="M617 205.163L618.819 220.913L602.451 220.913" stroke="#DDDDDD" stroke-width="5" stroke-linecap="round" stroke-linejoin="round"/>
</g>
<defs>
<linearGradient id="paint0_linear_1119_2889" x1="374.557" y1="435.893" x2="253.513" y2="123.904" gradientUnits="userSpaceOnUse">
<stop stop-color="#D8D8DA"/>
<stop offset="1" stop-color="#E9E9E9"/>
</linearGradient>
<linearGradient id="paint1_linear_1119_2889" x1="189.887" y1="17.7255" x2="191.779" y2="49.6495" gradientUnits="userSpaceOnUse">
<stop stop-color="#BABABA"/>
<stop offset="1" stop-color="#CCCCCC"/>
</linearGradient>
<clipPath id="clip0_1119_2889">
<rect width="84" height="84" fill="white" transform="matrix(0.866025 -0.5 0.866025 0.5 72.0938 216.738)"/>
</clipPath>
<clipPath id="clip1_1119_2889">
<rect width="84" height="84" fill="white" transform="matrix(0.866025 -0.5 0.866025 0.5 539.703 215.139)"/>
</clipPath>
</defs>
</svg>
