<svg width="778" height="467" viewBox="0 0 778 467" fill="none" xmlns="http://www.w3.org/2000/svg">
<g filter="url(#filter0_d_965_3288)">
<rect width="436" height="436" transform="matrix(0.866025 0.5 -0.866025 0.5 381.914 4.01172)" fill="#505050"/>
<rect width="436" height="8" transform="matrix(0.866025 0.5 0 1 4.32812 222.012)" fill="#444444"/>
<rect width="436" height="8" transform="matrix(0.866025 -0.5 0 1 381.914 440.012)" fill="#444444"/>
<path d="M382.221 417.154L365.076 407.256L368.628 405.205L376.23 409.594L376.467 409.457L375.093 401.473L379.379 398.998L380.658 407.119L396.595 408.855L392.333 411.316L380.492 409.977L380.871 412.273L385.773 415.104L382.221 417.154ZM408.886 402.06C405.002 404.302 399.911 404.152 395.933 401.855C391.955 399.558 391.718 396.632 395.601 394.39C399.485 392.148 404.576 392.271 408.555 394.568C412.533 396.865 412.77 399.818 408.886 402.06ZM406.186 400.474C407.986 399.435 407.228 397.931 404.979 396.632C402.705 395.32 400.101 394.882 398.301 395.921C396.478 396.974 397.212 398.492 399.485 399.804C401.735 401.103 404.363 401.527 406.186 400.474ZM412.735 390.951L420.17 395.244L416.666 397.268L403.807 389.844L407.146 387.916L409.396 389.215L409.538 389.133C408.638 387.93 409.088 386.604 410.982 385.51C413.658 383.965 417.258 383.992 420.241 385.742L428.435 390.473L424.954 392.483L417.376 388.108C415.789 387.192 413.966 387.151 412.521 387.985C411.053 388.832 411.03 389.967 412.735 390.951ZM432.911 373.752C431.419 373.054 429.525 373.218 427.796 374.216C425.997 375.255 425.831 376.308 426.944 376.978C428.151 377.703 430.022 377.279 431.822 376.623L433.74 375.953C437.339 374.64 441.034 374.23 443.899 375.884C447.048 377.703 446.575 380.273 442.407 382.679C438.263 385.072 433.693 385.496 429.927 383.431L433.385 381.435C435.232 382.365 437.482 382.078 439.376 380.984C441.247 379.904 441.578 378.701 440.299 377.962C439.139 377.293 437.529 377.593 435.185 378.4L432.864 379.22C429.264 380.478 426.044 380.67 423.534 379.22C420.408 377.416 421.095 374.64 424.836 372.48C428.625 370.293 433.243 370.06 436.321 371.783L432.911 373.752ZM450.636 377.655L433.492 367.756L440.217 363.873C444.124 361.618 448.742 361.713 452.128 363.668C455.562 365.651 455.633 368.317 451.678 370.6L448.6 372.377L454.189 375.604L450.636 377.655ZM445.735 370.723L448.245 369.274C450.352 368.057 450.187 366.785 448.458 365.787C446.753 364.803 444.574 364.721 442.467 365.938L439.957 367.387L445.735 370.723ZM465.544 356.142C463.365 355.212 460.737 355.39 458.747 356.538C456.072 358.083 456.379 360.284 459.979 362.362C463.673 364.495 467.414 364.605 470.043 363.087C472.008 361.952 472.364 360.489 470.872 359.218L474.495 357.153C477.266 359.218 477.502 362.417 473.145 364.933C468.551 367.585 461.944 367.681 456.356 364.454C450.767 361.228 451.004 357.372 455.527 354.761C459.482 352.478 464.739 352.067 469.143 354.064L465.544 356.142Z" fill="#969696"/>
<g clip-path="url(#clip0_965_3288)">
<path d="M381.906 90.1523L406.155 104.152" stroke="#6A6A6A" stroke-width="6" stroke-linecap="round" stroke-linejoin="round"/>
<path d="M363.418 107.475C358.865 107.447 354.383 106.821 350.311 105.645C346.24 104.468 342.685 102.772 339.917 100.685C337.149 98.5983 335.239 96.1749 334.333 93.5987C333.428 91.0226 333.549 88.3611 334.689 85.8161C335.828 83.271 337.956 80.9091 340.911 78.9092C343.866 76.9093 347.571 75.3238 351.744 74.2729C355.917 73.222 360.45 72.7332 364.999 72.8435C369.548 72.9538 373.994 73.6604 378 74.9097L383.426 71.7772C386.352 70.0874 390.142 68.9857 394.236 68.635C398.33 68.2843 402.511 68.7031 406.161 69.8295C409.811 70.956 412.737 72.7304 414.506 74.8905C416.275 77.0507 416.794 79.4822 415.986 81.8257" stroke="#6A6A6A" stroke-width="6" stroke-linecap="round" stroke-linejoin="round"/>
<path d="M381.913 104.152L381.913 90.1523L406.162 90.1523" stroke="#6A6A6A" stroke-width="6" stroke-linecap="round" stroke-linejoin="round"/>
</g>
</g>
<defs>
<filter id="filter0_d_965_3288" x="0.328125" y="0.0117188" width="777.172" height="466" filterUnits="userSpaceOnUse" color-interpolation-filters="sRGB">
<feFlood flood-opacity="0" result="BackgroundImageFix"/>
<feColorMatrix in="SourceAlpha" type="matrix" values="0 0 0 0 0 0 0 0 0 0 0 0 0 0 0 0 0 0 127 0" result="hardAlpha"/>
<feOffset dx="7" dy="7"/>
<feGaussianBlur stdDeviation="5.5"/>
<feComposite in2="hardAlpha" operator="out"/>
<feColorMatrix type="matrix" values="0 0 0 0 0 0 0 0 0 0 0 0 0 0 0 0 0 0 0.25 0"/>
<feBlend mode="normal" in2="BackgroundImageFix" result="effect1_dropShadow_965_3288"/>
<feBlend mode="normal" in="SourceGraphic" in2="effect1_dropShadow_965_3288" result="shape"/>
</filter>
<clipPath id="clip0_965_3288">
<rect width="84" height="84" fill="white" transform="matrix(0.866025 -0.5 0.866025 0.5 306.133 88.4023)"/>
</clipPath>
</defs>
</svg>
