<svg width="778" height="467" viewBox="0 0 778 467" fill="none" xmlns="http://www.w3.org/2000/svg">
<g filter="url(#filter0_d_1055_267)">
<rect width="436" height="436" transform="matrix(0.866025 0.5 -0.866025 0.5 381.914 4.01172)" fill="#505050"/>
<rect width="436" height="8" transform="matrix(0.866025 0.5 0 1 4.32812 222.012)" fill="#444444"/>
<rect width="436" height="8" transform="matrix(0.866025 -0.5 0 1 381.914 440.012)" fill="#444444"/>
<path d="M382.221 417.154L365.076 407.256L368.628 405.205L376.23 409.594L376.467 409.457L375.093 401.473L379.379 398.998L380.658 407.119L396.595 408.855L392.333 411.316L380.492 409.977L380.871 412.273L385.773 415.104L382.221 417.154ZM408.886 402.06C405.002 404.302 399.911 404.152 395.933 401.855C391.955 399.558 391.718 396.632 395.601 394.39C399.485 392.148 404.576 392.271 408.555 394.568C412.533 396.865 412.77 399.818 408.886 402.06ZM406.186 400.474C407.986 399.435 407.228 397.931 404.979 396.632C402.705 395.32 400.101 394.882 398.301 395.921C396.478 396.974 397.212 398.492 399.485 399.804C401.735 401.103 404.363 401.527 406.186 400.474ZM412.735 390.951L420.17 395.244L416.666 397.268L403.807 389.844L407.146 387.916L409.396 389.215L409.538 389.133C408.638 387.93 409.088 386.604 410.982 385.51C413.658 383.965 417.258 383.992 420.241 385.742L428.435 390.473L424.954 392.483L417.376 388.108C415.789 387.192 413.966 387.151 412.521 387.985C411.053 388.832 411.03 389.967 412.735 390.951ZM436.132 373.123C433.953 372.193 431.325 372.371 429.335 373.519C426.66 375.064 426.967 377.265 430.567 379.343C434.261 381.476 438.002 381.586 440.631 380.068C442.596 378.933 442.952 377.47 441.46 376.199L445.083 374.134C447.854 376.199 448.09 379.398 443.733 381.914C439.139 384.566 432.532 384.662 426.944 381.435C421.355 378.209 421.592 374.353 426.115 371.742C430.07 369.459 435.327 369.048 439.731 371.045L436.132 373.123ZM439.199 364.461L456.343 374.36L452.839 376.383L435.694 366.485L439.199 364.461ZM464.62 369.882C460.737 372.124 455.645 371.974 451.667 369.677C447.689 367.38 447.452 364.454 451.335 362.212C455.219 359.97 460.31 360.093 464.289 362.39C468.267 364.687 468.504 367.64 464.62 369.882ZM461.921 368.296C463.72 367.257 462.963 365.753 460.713 364.454C458.44 363.142 455.835 362.704 454.035 363.743C452.212 364.796 452.946 366.314 455.219 367.626C457.469 368.925 460.097 369.349 461.921 368.296ZM475.17 357.174L467.782 352.908L471.287 350.885L484.145 358.308L480.783 360.25L478.462 358.91L478.32 358.992C479.22 360.195 478.841 361.562 476.899 362.683C474.318 364.174 470.742 364.133 467.735 362.396L459.541 357.666L463.046 355.642L470.624 360.017C472.139 360.892 473.986 360.947 475.36 360.154C476.638 359.416 476.923 358.185 475.17 357.174ZM491.333 354.405C488.396 356.1 483.755 356.073 479.469 353.598C475.064 351.055 475.254 348.403 478.095 346.762C480.25 345.518 482.547 345.668 484.063 345.997L484.181 345.928L477.74 342.209L481.245 340.186L498.389 350.084L494.932 352.081L492.872 350.891L492.706 350.987C493.274 351.889 493.416 353.202 491.333 354.405ZM489.628 352.163C491.38 351.151 490.835 349.688 488.515 348.348C486.194 347.008 483.731 346.735 481.979 347.747C480.203 348.772 480.795 350.208 483.044 351.506C485.318 352.819 487.852 353.188 489.628 352.163Z" fill="#969696"/>
<g clip-path="url(#clip0_1055_267)">
<path d="M381.906 90.1523L406.155 104.152" stroke="#6A6A6A" stroke-width="6" stroke-linecap="round" stroke-linejoin="round"/>
<path d="M363.418 107.475C358.865 107.447 354.383 106.821 350.311 105.645C346.24 104.468 342.685 102.772 339.917 100.685C337.149 98.5983 335.239 96.1749 334.333 93.5987C333.428 91.0226 333.549 88.3611 334.689 85.8161C335.828 83.271 337.956 80.9091 340.911 78.9092C343.866 76.9093 347.571 75.3238 351.744 74.2729C355.917 73.222 360.45 72.7332 364.999 72.8435C369.548 72.9538 373.994 73.6604 378 74.9097L383.426 71.7772C386.352 70.0874 390.142 68.9857 394.236 68.635C398.33 68.2843 402.511 68.7031 406.161 69.8295C409.811 70.956 412.737 72.7304 414.506 74.8905C416.275 77.0507 416.794 79.4822 415.986 81.8257" stroke="#6A6A6A" stroke-width="6" stroke-linecap="round" stroke-linejoin="round"/>
<path d="M381.913 104.152L381.913 90.1523L406.162 90.1523" stroke="#6A6A6A" stroke-width="6" stroke-linecap="round" stroke-linejoin="round"/>
</g>
</g>
<defs>
<filter id="filter0_d_1055_267" x="0.328125" y="0.0117188" width="777.172" height="466" filterUnits="userSpaceOnUse" color-interpolation-filters="sRGB">
<feFlood flood-opacity="0" result="BackgroundImageFix"/>
<feColorMatrix in="SourceAlpha" type="matrix" values="0 0 0 0 0 0 0 0 0 0 0 0 0 0 0 0 0 0 127 0" result="hardAlpha"/>
<feOffset dx="7" dy="7"/>
<feGaussianBlur stdDeviation="5.5"/>
<feComposite in2="hardAlpha" operator="out"/>
<feColorMatrix type="matrix" values="0 0 0 0 0 0 0 0 0 0 0 0 0 0 0 0 0 0 0.25 0"/>
<feBlend mode="normal" in2="BackgroundImageFix" result="effect1_dropShadow_1055_267"/>
<feBlend mode="normal" in="SourceGraphic" in2="effect1_dropShadow_1055_267" result="shape"/>
</filter>
<clipPath id="clip0_1055_267">
<rect width="84" height="84" fill="white" transform="matrix(0.866025 -0.5 0.866025 0.5 306.133 88.4023)"/>
</clipPath>
</defs>
</svg>
