<svg width="510" height="521" viewBox="0 0 510 521" fill="none" xmlns="http://www.w3.org/2000/svg">
<rect width="246" height="226" transform="matrix(-0.866025 -0.5 0 1 468.383 171.736)" fill="url(#paint0_linear_1119_1243)"/>
<path d="M0.726562 147.737L42.2959 171.737L255.339 48.7363L468.379 171.736L509.948 147.736L296.906 24.7363L296.904 24.7373L255.336 0.738281L0.726562 147.737Z" fill="white"/>
<rect width="246" height="226" transform="matrix(0.866025 -0.5 0 1 42.2969 171.736)" fill="url(#paint1_linear_1119_1243)"/>
<rect width="246" height="246" transform="matrix(0.866025 0.5 -0.866025 0.5 255.344 226.736)" fill="url(#paint2_linear_1119_1243)"/>
<path d="M42.3047 397.736L255.347 520.736V472.736L42.3047 349.736V397.736ZM0.734375 373.736L42.3037 397.736V171.736L0.734375 147.736V373.736Z" fill="url(#paint3_linear_1119_1243)"/>
<path d="M468.384 171.736V349.737L255.344 472.736V520.736L468.386 397.736V397.734L509.953 373.736V147.736L468.384 171.736Z" fill="url(#paint4_linear_1119_1243)"/>
<path d="M73.8275 399.419V383.865L76.6184 385.476V392.372L76.8045 392.48L81.6978 388.409L85.0655 390.353L80.0419 394.413L85.1214 405.94L81.7723 404.006L78.0325 395.423L76.6184 396.583V401.031L73.8275 399.419ZM94.574 411.634C91.5226 409.872 89.6248 406.348 89.6248 402.739C89.6248 399.13 91.5226 397.819 94.574 399.581C97.6253 401.343 99.5418 404.855 99.5418 408.465C99.5418 412.074 97.6253 413.395 94.574 411.634ZM94.5926 409.174C96.0066 409.99 96.7322 408.884 96.7322 406.843C96.7322 404.78 96.0066 402.836 94.5926 402.019C93.1599 401.192 92.4157 402.288 92.4157 404.35C92.4157 406.391 93.1599 408.347 94.5926 409.174ZM103.645 409.888V416.634L100.891 415.044V403.378L103.515 404.893V406.934L103.626 406.999C104.091 405.914 105.17 405.699 106.659 406.558C108.761 407.772 110.157 410.232 110.138 412.95V420.383L107.403 418.804V411.929C107.403 410.49 106.715 409.233 105.58 408.578C104.426 407.912 103.645 408.341 103.645 409.888ZM123.275 416.86C123.163 415.571 122.307 414.347 120.949 413.562C119.535 412.746 118.754 413.047 118.735 414.067C118.716 415.174 119.74 416.28 120.893 417.247L122.103 418.289C124.41 420.223 126.14 422.575 126.14 425.175C126.14 428.032 124.205 428.72 120.93 426.829C117.674 424.949 115.591 422.006 115.516 418.633L118.233 420.201C118.326 421.823 119.405 423.241 120.893 424.101C122.363 424.949 123.312 424.702 123.312 423.542C123.312 422.489 122.475 421.512 121.005 420.233L119.535 418.977C117.265 417.021 115.87 414.905 115.87 412.628C115.87 409.792 118.028 409.169 120.968 410.866C123.945 412.585 125.917 415.636 125.954 418.407L123.275 416.86ZM127.062 417.263V414.599L138.095 420.969V423.634L133.964 421.249V434.139L131.192 432.539V419.648L127.062 417.263ZM147.78 426.561L150.589 428.183V438.281C150.589 441.697 148.356 442.664 145.007 440.73C141.658 438.796 139.444 435.262 139.444 431.846V421.748L142.235 423.36V433.2C142.235 434.983 143.333 436.927 145.007 437.894C146.701 438.872 147.78 438.184 147.78 436.401V426.561ZM157.223 447.568L152.478 444.828V429.274L157.278 432.045C161.335 434.387 163.809 438.737 163.809 443.571C163.809 448.448 161.335 449.942 157.223 447.568ZM155.269 443.668L157.111 444.732C159.679 446.214 161.018 445.441 161.018 441.96C161.018 438.501 159.679 436.202 157.13 434.731L155.269 433.656V443.668ZM168.247 438.378V453.933L165.456 452.321V436.766L168.247 438.378ZM182.472 454.368C182.472 459.438 179.737 460.781 176.183 458.729C172.592 456.656 169.875 452.144 169.875 447.095C169.875 442.025 172.592 440.671 176.183 442.745C179.737 444.796 182.472 449.297 182.472 454.368ZM179.625 452.724C179.625 449.394 178.267 446.805 176.183 445.602C174.099 444.399 172.722 445.409 172.722 448.739C172.722 452.069 174.099 454.669 176.183 455.872C178.267 457.075 179.625 456.054 179.625 452.724Z" fill="black"/>
<g clip-path="url(#clip0_1119_1243)">
<path d="M143.188 201.738C143.188 199.875 143.188 198.943 143.451 198.055C143.803 196.872 144.477 195.704 145.326 194.808C145.963 194.136 146.77 193.67 148.384 192.738V192.738C149.998 191.806 150.805 191.34 151.441 191.277C152.29 191.193 152.965 191.583 153.316 192.36C153.58 192.943 153.58 193.875 153.58 195.738V195.738C153.58 197.602 153.58 198.534 153.316 199.421C152.965 200.604 152.29 201.772 151.441 202.668C150.805 203.34 149.998 203.806 148.384 204.738V204.738C146.77 205.67 145.963 206.136 145.326 206.199C144.477 206.283 143.803 205.894 143.451 205.117C143.188 204.534 143.188 203.602 143.188 201.738V201.738Z" stroke="#DFDFDF" stroke-width="3"/>
<circle cx="5" cy="5" r="5" transform="matrix(0.866025 -0.5 0 1 155.305 176.738)" stroke="#DFDFDF" stroke-width="3"/>
<circle cx="5" cy="5" r="5" transform="matrix(0.866025 -0.5 0 1 155.305 202.736)" stroke="#DFDFDF" stroke-width="3"/>
<circle cx="5" cy="5" r="5" transform="matrix(0.866025 -0.5 0 1 132.789 215.738)" stroke="#DFDFDF" stroke-width="3"/>
<circle cx="5" cy="5" r="5" transform="matrix(0.866025 -0.5 0 1 132.789 189.738)" stroke="#DFDFDF" stroke-width="3"/>
<path d="M140.586 194.238L144.05 196.238M140.586 212.238L143.184 207.738M156.174 203.238L153.576 201.738M153.576 189.738L156.174 185.238" stroke="#DFDFDF" stroke-width="3" stroke-linecap="square"/>
</g>
<g clip-path="url(#clip1_1119_1243)">
<path d="M374.626 191.668C371.929 186.993 368.416 182.963 364.633 180.204C360.849 177.444 357.007 176.11 353.703 176.408" stroke="#F4F4F4" stroke-width="3" stroke-linecap="round" stroke-linejoin="round"/>
<path d="M348.523 178.738L348.541 178.748" stroke="#F4F4F4" stroke-width="3" stroke-linecap="round" stroke-linejoin="round"/>
<path d="M345.562 184.268C344.913 186.947 344.896 190.125 345.514 193.545C346.132 196.964 347.366 200.529 349.117 203.948C350.868 207.368 353.087 210.547 355.592 213.226C358.098 215.906 360.82 218.01 363.537 219.37C366.254 220.729 368.891 221.305 371.232 221.05C373.573 220.795 375.553 219.717 377.012 217.902C378.47 216.088 379.365 213.589 379.625 210.609C379.884 207.628 379.501 204.25 378.506 200.748" stroke="#F4F4F4" stroke-width="3" stroke-linecap="round" stroke-linejoin="round"/>
<path d="M369.723 194.497C368.726 192.764 367.535 191.166 366.223 189.801C364.911 188.435 363.506 187.331 362.092 186.556C360.679 185.781 359.288 185.352 358.004 185.294C356.72 185.235 355.57 185.55 354.625 186.219C353.68 186.887 352.959 187.895 352.507 189.18C352.055 190.466 351.881 192.002 351.995 193.696C352.11 195.389 352.511 197.203 353.173 199.028C353.836 200.853 354.747 202.649 355.849 204.307" stroke="#F4F4F4" stroke-width="3" stroke-linecap="round" stroke-linejoin="round"/>
<path d="M362.375 210.738L362.392 210.748" stroke="#F4F4F4" stroke-width="3" stroke-linecap="round" stroke-linejoin="round"/>
<path d="M372.751 204.048C372.846 206.005 372.546 207.734 371.877 209.09C371.209 210.446 370.19 211.392 368.906 211.848" stroke="#F4F4F4" stroke-width="3" stroke-linecap="round" stroke-linejoin="round"/>
<path d="M362.378 202.738C364.291 203.843 365.842 202.947 365.842 200.738C365.842 198.529 364.291 195.843 362.378 194.738C360.465 193.634 358.914 194.529 358.914 196.738C358.914 198.947 360.465 201.634 362.378 202.738Z" stroke="#F4F4F4" stroke-width="3" stroke-linecap="round" stroke-linejoin="round"/>
<path d="M364.82 197.328L374.624 191.668" stroke="#F4F4F4" stroke-width="3" stroke-linecap="round" stroke-linejoin="round"/>
</g>
<defs>
<linearGradient id="paint0_linear_1119_1243" x1="116.855" y1="-2.16519" x2="121.482" y2="226.031" gradientUnits="userSpaceOnUse">
<stop stop-color="#D6D6D6"/>
<stop offset="1" stop-color="#EBEBEB"/>
</linearGradient>
<linearGradient id="paint1_linear_1119_1243" x1="107.138" y1="-40.3746" x2="216.305" y2="180.288" gradientUnits="userSpaceOnUse">
<stop stop-color="#BABABA"/>
<stop offset="1" stop-color="#CCCCCC"/>
</linearGradient>
<linearGradient id="paint2_linear_1119_1243" x1="165.445" y1="154.9" x2="-311.781" y2="140.759" gradientUnits="userSpaceOnUse">
<stop stop-color="white"/>
<stop offset="1" stop-color="#CECECE"/>
</linearGradient>
<linearGradient id="paint3_linear_1119_1243" x1="-68.4021" y1="29.2197" x2="216.578" y2="8.48326" gradientUnits="userSpaceOnUse">
<stop stop-color="#D8D8DA"/>
<stop offset="1" stop-color="#E9E9E9"/>
</linearGradient>
<linearGradient id="paint4_linear_1119_1243" x1="465.092" y1="-58.2803" x2="-99.5581" y2="208.382" gradientUnits="userSpaceOnUse">
<stop stop-color="#B9B9BA"/>
<stop offset="1" stop-color="#D8D8DA"/>
</linearGradient>
<clipPath id="clip0_1119_1243">
<rect width="48" height="48" fill="white" transform="matrix(0.866025 -0.5 0 1 127.594 186.738)"/>
</clipPath>
<clipPath id="clip1_1119_1243">
<rect width="48" height="48" fill="white" transform="matrix(0.866025 0.5 0 1 341.594 162.738)"/>
</clipPath>
</defs>
</svg>
