<svg width="24" height="25" viewBox="0 0 24 25" fill="none" xmlns="http://www.w3.org/2000/svg">
<path d="M12 22.4619C16.9706 22.4619 21 18.4325 21 13.4619C21 8.49135 16.9706 4.46191 12 4.46191C7.02944 4.46191 3 8.49135 3 13.4619C3 18.4325 7.02944 22.4619 12 22.4619Z" stroke="#696971" stroke-width="1.2" stroke-linecap="round" stroke-linejoin="round"/>
<path d="M4 10.4619H20" stroke="#696971" stroke-width="1.2" stroke-linecap="round" stroke-linejoin="round"/>
<path d="M4 16.4619H20" stroke="#696971" stroke-width="1.2" stroke-linecap="round" stroke-linejoin="round"/>
<path d="M12 4.46191C14.5013 6.92643 15.9228 10.1247 16 13.4619C15.9228 16.7991 14.5013 19.9974 12 22.4619C9.49872 19.9974 8.07725 16.7991 8 13.4619C8.07725 10.1247 9.49872 6.92643 12 4.46191Z" stroke="#696971" stroke-width="1.2" stroke-linecap="round" stroke-linejoin="round"/>
</svg>
